<?xml version="1.0" encoding="utf-8"?>
<!-- Generator: Adobe Illustrator 26.5.0, SVG Export Plug-In . SVG Version: 6.00 Build 0)  -->
<svg version="1.1" id="Layer_1" xmlns="http://www.w3.org/2000/svg" xmlns:xlink="http://www.w3.org/1999/xlink" x="0px" y="0px"
	 viewBox="0 0 398 610" style="enable-background:new 0 0 398 610;" xml:space="preserve">
<path d="M132.6,458.2c1.3,4.8,2.6,9.1,3.6,13.5c0.4,1.4,0,3,0,4.4c-1.4-0.2-2.8-0.1-4.1-0.6c-18.8-6.8-34.2-18.7-47.9-33.1
	c-7.3-7.6-13.9-15.7-20.7-23.8c-4.2-4.9-5.7-10.7-5.5-17.1c0.5-14.2,0.7-28.3,1.1-42.5c0.1-5-1.2-9.1-5.5-12.2
	c-3.5-2.5-4.9-6-4.6-10.3c1.1-14.4-3-27-12.2-38.3c-3.6-4.6-6.4-9.7-9.6-14.6c-2.1-3.3-0.8-5.7,2-7.8c11.8-8.9,23.5-17.8,35.5-26.5
	c14.4-10.7,29.1-21.1,43.3-32c2.2-1.8,3.7-5.5,4.1-8.5c0.7-6,0.4-11.9,0.2-17.9c-0.1-4.2,1.5-7.5,4.4-10.5
	c15.5-15.8,30.9-31.5,46-47.5c2.6-2.7,4.4-6.6,5.3-10.2c6.4-27.9,12.5-55.8,18.8-83.8c0.8-3.9,3-6.3,7-7.6
	C224.8,21.2,255.5,11,286.3,1c1.6-0.6,3.5-0.7,5.3-1.1c0.2,0.4,0.5,0.7,0.7,0.9C285.7,12,279.2,23.1,272.1,35c3.9-1.8,7-3,10.1-4.3
	c4-1.8,8.2-3.2,12.1-5.3c11.1-6.4,22.9-7.6,35.5-7.1c13.8,0.5,27.7,0.1,42,0.1v46.2c-17.1-0.6-34.2-1.1-51.2-1.6
	c-0.1-0.6-0.4-1.2-0.6-1.6c6.2-4.9,12.4-9.7,19.4-15.3c-15.8,0.4-30.4-1.6-44.6,6.2c-23.2,12.9-47.3,24.2-70.9,36.2
	c-2.1,1.1-4.4,1.8-6.7,2.6c-0.4-0.4-0.7-0.6-0.9-0.9c4.6-14.2,9-28.3,13.8-43.4c-6.8,2.2-12.9,4.1-18.7,6.3
	c-4.3,1.6-5.4,5.9-6.4,9.8c-3.7,14.4-7.5,28.8-11.2,43.3c-1.3,5-2.6,10.1-4.1,15.9c22.9-6.9,45.2-13.6,68.5-15
	c0.1,0.5,0.4,0.9,0.6,1.4c-1.1,0.8-2.1,1.8-3.3,2.3c-26.3,12.9-52.7,25.8-79.1,38.4c-6.7,3.2-12.6,7-17.6,12.6
	c-6.7,7.5-13.8,14.6-20.8,21.9c-5.4,5.5-8.3,11.8-7.1,19.8c0.6,3.7,0.5,7.7-0.5,11.4c-0.7,2.7-2.7,5.5-5,7.3
	c-20.7,15.5-41.6,30.7-62.4,46.1c-4.7,3.5-9.2,7.1-14.9,11.6c5.7,0.6,10.3,1.2,15,1.4c5,0.4,9.5,1.2,12.5,5.9
	c0.6,0.8,3.5,1.1,4.8,0.5c5.7-2.5,11.2-5.2,16.9-7.8c0.4,0.2,0.7,0.6,0.9,0.8c-1.1,2.3-2.1,4.6-3,6.9c-5.3,12.1-12.9,21.5-25.4,27.2
	c-8,3.5-9.6,13.3-3.9,20c8,9.2,17.9,15.1,30.1,16.2c8.9,0.8,16.3,3.6,22.5,10.2c4.2,4.4,5.2,4.1,9.5-0.4c5.6-5.5,11.4-11,17.1-16.3
	c3.7-3.5,4.3-6.1,2.6-10.9c-1.3-3.4-2.3-6.9-3.2-10.4c-1.6-7.4-6.2-11.2-13.3-12.8c-5.4-1.2-10.8-2.5-16.2-3.9
	c-1.9-0.5-3.6-1.4-5.5-2.1c0-0.4,0-0.8,0-1.2c2.5-0.6,4.8-1.2,7.3-1.8c9.7-2.1,19.4-4.3,29-6.4c3.2-0.7,5.4,0.2,6.4,3.5
	c1.1,3.2,2.5,6.2,3.9,9.8c2.5-1.8,4.4-3.3,6.4-4.8c27.7-21.9,55.5-43.8,83.2-65.5c3.6-2.8,4.4-4.9,2.1-9.4
	c-6.3-11.7-12.1-23.6-18-35.6c-2.7-5.4-2.5-6.2,2.1-9.9c12.6-10.7,25.2-21.3,37.9-31.8c3.7-3.2,5.2-6.6,3.6-11.5
	c-1.6-5.9-2.5-11.9-3.7-19c1.6,0.9,2.6,1.4,3.4,2.1c10.8,9.2,21.4,18.5,32.3,27.6c2.8,2.3,2.6,3.9-0.1,6.2
	c-8.2,7.1-16.2,14.4-24.1,21.7c-1.1,0.9-2.1,1.9-3.5,3.3c8.7,7.1,17,14,25.2,21c22.4,18.6,44.7,37.1,67,55.8
	c1.1,0.8,2.1,2.3,2.1,3.5c0.1,12.5,0,25.2-0.1,37.7c0,0.2-0.2,0.5-0.7,1.2c-36.5-5.5-73.2-11.1-111.1-16.7
	c6.9,7.8,12.9,15,19.1,21.9c30.1,33.6,60.3,67.2,90.2,100.9c1.5,1.6,2.6,4.3,2.6,6.6c0.1,56.2,0.1,112.3,0,168.4
	c0,1.3-0.1,2.5-0.2,4.4c-42.6-17.6-84.5-35-126.5-52.3c-0.1,0.2-0.4,0.5-0.6,0.7c15.2,24.8,30.3,49.6,45.5,74.4l-0.9,1.1
	c-1.5-0.5-3-0.8-4.4-1.4c-21.8-10.9-43.7-21.8-65.4-32.7c-15.5-7.7-30.7-15.7-46.2-23.2c-6.6-3.2-10.3-7.7-11.8-15.1
	c-4.2-21.5-9.5-42.8-13.6-64.3C146.3,464.5,141.7,459.9,132.6,458.2L132.6,458.2z M356.8,519.5c0.1-0.2,0.2-0.4,0.4-0.6
	c-54.1-41.6-108-83-162.9-125.1c0.5,1.6,0.5,2,0.7,2.3c18.8,28.3,37.8,56.5,56.7,84.9c2.7,4.1,6.2,6.7,10.9,8.2
	c21.7,6.9,43.3,14,65,21.1C337.1,513.3,347,516.3,356.8,519.5L356.8,519.5z M128.7,427.7c0.4-0.4,0.7-0.7,1.1-1.1
	c-1.3-2.7-2.8-5.4-4-8.1c-3.6-8.3-9.7-15.7-9.2-25.6c0.1-1.9-2.1-4.1-3.6-5.6c-2.9-3-6.7-5.4-9.2-8.7c-5.9-7-13.1-10.8-22-12.4
	c-5.3-0.9-5.9-0.7-6,4.7c-0.1,8.2,0,16.4-0.6,24.5c-0.4,5.2,0.7,9.5,4.1,13.3c4.3,4.9,8.5,9.9,13.1,14.6
	c5.6,5.7,11.6,11.2,17.3,16.9l0.8-0.6c-2-7.8-4-15.7-6.3-24.7C113.2,419.9,120.9,423.9,128.7,427.7L128.7,427.7z"/>
<path d="M166.6,191.6c-4.8,0.9-9.6,2.3-14.5,2.6c-11,0.7-20.4,5.2-29.4,10.9c-12.4,7.8-25,15.5-37.5,23.1c-1,0.6-2.1,0.9-3.2,1.4
	l-0.7-0.8c1.1-2,1.9-4.2,3.3-6c8-11.2,15.9-22.3,24.1-33.3c2.5-3.4,3.4-6.6,2.6-10.8c-0.7-3.7-0.4-7.6-0.6-11.4
	c0.4-0.2,0.7-0.3,1.1-0.5c2.5,2.1,5.1,4.1,7.5,6.3c3.4,3.2,7,4.4,11.6,3c8.2-2.4,15.8-2.1,22.6,4.2c4,3.8,8.9,6.6,13.4,9.9
	C166.7,190.9,166.6,191.2,166.6,191.6L166.6,191.6z"/>
<path d="M305.9,117.8v18.6h-42.4c-0.1-0.5-0.1-0.9-0.2-1.4C276.5,127.4,290.6,122.1,305.9,117.8z"/>
<path d="M123.8,157.4c10.2-4.7,20.4-9.3,30.5-14c0.3,0.4,0.6,0.9,0.9,1.3c-3.4,4.6-6.6,9.2-10.1,13.7c-6.1,7.9-3.6,6.8-13,4
	c-2.8-0.8-5.5-2.2-8.2-3.3L123.8,157.4L123.8,157.4z"/>
</svg>
